<mxfile host="app.diagrams.net" agent="Mozilla/5.0 (Windows NT 10.0; Win64; x64) AppleWebKit/537.36 (KHTML, like Gecko) Chrome/138.0.0.0 Safari/537.36" version="28.0.7">
  <diagram name="第 1 页" id="OScON0uFFF_HVffJT3v7">
    <mxGraphModel dx="719" dy="430" grid="1" gridSize="10" guides="1" tooltips="1" connect="1" arrows="1" fold="1" page="1" pageScale="1" pageWidth="827" pageHeight="1169" math="0" shadow="0">
      <root>
        <mxCell id="0" />
        <mxCell id="1" parent="0" />
        <mxCell id="lII507WHuObbA_-ItIhy-10" style="edgeStyle=orthogonalEdgeStyle;rounded=0;orthogonalLoop=1;jettySize=auto;html=1;exitX=0.5;exitY=1;exitDx=0;exitDy=0;entryX=0.5;entryY=0;entryDx=0;entryDy=0;" edge="1" parent="1" source="lII507WHuObbA_-ItIhy-1" target="lII507WHuObbA_-ItIhy-4">
          <mxGeometry relative="1" as="geometry" />
        </mxCell>
        <mxCell id="lII507WHuObbA_-ItIhy-11" style="edgeStyle=orthogonalEdgeStyle;rounded=0;orthogonalLoop=1;jettySize=auto;html=1;exitX=0.5;exitY=1;exitDx=0;exitDy=0;entryX=0.5;entryY=0;entryDx=0;entryDy=0;" edge="1" parent="1" source="lII507WHuObbA_-ItIhy-1" target="lII507WHuObbA_-ItIhy-3">
          <mxGeometry relative="1" as="geometry" />
        </mxCell>
        <mxCell id="lII507WHuObbA_-ItIhy-12" style="edgeStyle=orthogonalEdgeStyle;rounded=0;orthogonalLoop=1;jettySize=auto;html=1;exitX=0.5;exitY=1;exitDx=0;exitDy=0;entryX=0.5;entryY=0;entryDx=0;entryDy=0;" edge="1" parent="1" source="lII507WHuObbA_-ItIhy-1" target="lII507WHuObbA_-ItIhy-5">
          <mxGeometry relative="1" as="geometry" />
        </mxCell>
        <mxCell id="lII507WHuObbA_-ItIhy-1" value="&lt;font face=&quot;Times New Roman&quot; style=&quot;font-size: 22px; color: rgb(255, 255, 255);&quot;&gt;PMS算法&lt;/font&gt;&lt;div&gt;&lt;font face=&quot;Times New Roman&quot; style=&quot;font-size: 22px; color: rgb(255, 255, 255);&quot;&gt;基音周期预测&lt;/font&gt;&lt;/div&gt;" style="rounded=1;whiteSpace=wrap;html=1;fillColor=light-dark(#004C99,#3399FF);strokeColor=#99CCFF;" vertex="1" parent="1">
          <mxGeometry x="320" y="280" width="160" height="80" as="geometry" />
        </mxCell>
        <mxCell id="lII507WHuObbA_-ItIhy-14" style="edgeStyle=orthogonalEdgeStyle;rounded=0;orthogonalLoop=1;jettySize=auto;html=1;exitX=0.5;exitY=1;exitDx=0;exitDy=0;entryX=0.5;entryY=0;entryDx=0;entryDy=0;" edge="1" parent="1" source="lII507WHuObbA_-ItIhy-3" target="lII507WHuObbA_-ItIhy-6">
          <mxGeometry relative="1" as="geometry" />
        </mxCell>
        <mxCell id="lII507WHuObbA_-ItIhy-3" value="&lt;font style=&quot;font-size: 18px;&quot;&gt;帧划分&lt;/font&gt;" style="rounded=1;whiteSpace=wrap;html=1;fillColor=#99CCFF;strokeColor=#6c8ebf;" vertex="1" parent="1">
          <mxGeometry x="240" y="400" width="100" height="40" as="geometry" />
        </mxCell>
        <mxCell id="lII507WHuObbA_-ItIhy-15" style="edgeStyle=orthogonalEdgeStyle;rounded=0;orthogonalLoop=1;jettySize=auto;html=1;exitX=0.5;exitY=1;exitDx=0;exitDy=0;" edge="1" parent="1" source="lII507WHuObbA_-ItIhy-4" target="lII507WHuObbA_-ItIhy-7">
          <mxGeometry relative="1" as="geometry" />
        </mxCell>
        <mxCell id="lII507WHuObbA_-ItIhy-4" value="&lt;font style=&quot;font-size: 18px;&quot;&gt;奇偶搜索&lt;/font&gt;" style="rounded=1;whiteSpace=wrap;html=1;fillColor=#99CCFF;strokeColor=#6c8ebf;" vertex="1" parent="1">
          <mxGeometry x="350" y="400" width="100" height="40" as="geometry" />
        </mxCell>
        <mxCell id="lII507WHuObbA_-ItIhy-16" style="edgeStyle=orthogonalEdgeStyle;rounded=0;orthogonalLoop=1;jettySize=auto;html=1;exitX=0.5;exitY=1;exitDx=0;exitDy=0;entryX=0.5;entryY=0;entryDx=0;entryDy=0;" edge="1" parent="1" source="lII507WHuObbA_-ItIhy-5" target="lII507WHuObbA_-ItIhy-9">
          <mxGeometry relative="1" as="geometry" />
        </mxCell>
        <mxCell id="lII507WHuObbA_-ItIhy-5" value="&lt;font style=&quot;font-size: 18px;&quot;&gt;微调嵌入&lt;/font&gt;" style="rounded=1;whiteSpace=wrap;html=1;fillColor=#99CCFF;strokeColor=#6c8ebf;" vertex="1" parent="1">
          <mxGeometry x="460" y="400" width="100" height="40" as="geometry" />
        </mxCell>
        <mxCell id="lII507WHuObbA_-ItIhy-6" value="&lt;font face=&quot;Times New Roman&quot; style=&quot;font-size: 18px;&quot;&gt;每30ms帧&lt;/font&gt;&lt;div&gt;&lt;font face=&quot;Times New Roman&quot; style=&quot;font-size: 18px;&quot;&gt;4个子帧&lt;/font&gt;&lt;/div&gt;" style="rounded=1;whiteSpace=wrap;html=1;fillColor=#dae8fc;strokeColor=#6c8ebf;" vertex="1" parent="1">
          <mxGeometry x="240" y="470" width="100" height="60" as="geometry" />
        </mxCell>
        <mxCell id="lII507WHuObbA_-ItIhy-7" value="&lt;font style=&quot;font-size: 18px;&quot;&gt;搜索范围&lt;/font&gt;&lt;div&gt;&lt;span style=&quot;font-size: 18px; background-color: transparent; color: light-dark(rgb(0, 0, 0), rgb(255, 255, 255));&quot;&gt;奇偶划分&lt;/span&gt;&lt;/div&gt;" style="rounded=1;whiteSpace=wrap;html=1;fillColor=#dae8fc;strokeColor=#6c8ebf;" vertex="1" parent="1">
          <mxGeometry x="350" y="470" width="100" height="60" as="geometry" />
        </mxCell>
        <mxCell id="lII507WHuObbA_-ItIhy-9" value="&lt;span style=&quot;font-family: &amp;quot;Times New Roman&amp;quot;; font-size: 18px;&quot;&gt;±2&lt;/span&gt;&lt;span style=&quot;font-size: 18px;&quot;&gt;样本点&lt;/span&gt;&lt;div&gt;&lt;span style=&quot;font-size: 18px;&quot;&gt;扰动范围&lt;/span&gt;&lt;/div&gt;" style="rounded=1;whiteSpace=wrap;html=1;fillColor=#dae8fc;strokeColor=#6c8ebf;" vertex="1" parent="1">
          <mxGeometry x="460" y="470" width="100" height="60" as="geometry" />
        </mxCell>
      </root>
    </mxGraphModel>
  </diagram>
</mxfile>
